<svg width="64" height="64" viewBox="0 0 64 64" fill="none" xmlns="http://www.w3.org/2000/svg">
<g clip-path="url(#clip0_23_1006)">
<mask id="mask0_23_1006" style="mask-type:luminance" maskUnits="userSpaceOnUse" x="0" y="0" width="64" height="64">
<path d="M0 0H64V64H0V0Z" fill="white"/>
</mask>
<g mask="url(#mask0_23_1006)">
<path d="M64 32C64 14.3269 49.6731 0 32 0C14.3269 0 0 14.3269 0 32C0 49.6731 14.3269 64 32 64C49.6731 64 64 49.6731 64 32Z" fill="#101010"/>
<path d="M17.7649 28.5815C17.7649 28.5088 17.7825 28.4372 17.8161 28.3728C17.8497 28.3084 17.8985 28.253 17.9581 28.2115C18.0178 28.17 18.0866 28.1435 18.1586 28.1343C18.2307 28.1251 18.304 28.1335 18.3721 28.1587L33.7511 33.8597C33.8374 33.8917 33.9118 33.9494 33.9644 34.0249C34.0169 34.1004 34.0451 34.1902 34.0451 34.2822V50.1883C34.0451 50.4703 34.0451 50.6113 33.9991 50.7323C33.9581 50.8393 33.8916 50.9348 33.8056 51.0103C33.7081 51.0955 33.5759 51.1445 33.3116 51.2425L26.7394 53.6782C26.4001 53.8042 26.2301 53.867 26.0944 53.8363C25.9756 53.8094 25.8719 53.7373 25.8054 53.6353C25.7294 53.5185 25.7294 53.3375 25.7294 52.9755V39.726L20.1169 37.6455C19.4266 37.3895 18.8312 36.9284 18.4108 36.3241C17.9903 35.7198 17.7649 35.0012 17.7649 34.265V28.5815ZM49.9536 19.372C50.0218 19.347 50.0949 19.3387 50.1669 19.348C50.2389 19.3573 50.3075 19.3839 50.3671 19.4254C50.4266 19.4669 50.4752 19.5222 50.5088 19.5866C50.5423 19.6509 50.5599 19.7224 50.5599 19.795V25.404C50.5599 26.915 49.6174 28.2657 48.1991 28.7875L34.8856 33.684C34.8175 33.709 34.7444 33.7172 34.6724 33.7078C34.6004 33.6985 34.5318 33.6719 34.4723 33.6304C34.4128 33.5888 34.3642 33.5335 34.3307 33.4692C34.2971 33.4048 34.2796 33.3333 34.2796 33.2607V25.451C34.2796 25.2622 34.3974 25.0935 34.5746 25.0282L49.9536 19.372ZM17.7649 10.895C17.7649 10.8223 17.7825 10.7508 17.8162 10.6864C17.8498 10.622 17.8986 10.5667 17.9582 10.5252C18.0179 10.4837 18.0866 10.4572 18.1587 10.4481C18.2308 10.4389 18.304 10.4473 18.3721 10.4725L33.7511 16.1737C33.8374 16.2057 33.9119 16.2633 33.9644 16.3389C34.017 16.4144 34.0452 16.5042 34.0451 16.5962V24.4747C34.0452 24.5474 34.0276 24.619 33.994 24.6834C33.9603 24.7479 33.9116 24.8032 33.8519 24.8447C33.7923 24.8862 33.7235 24.9127 33.6514 24.9218C33.5793 24.931 33.506 24.9225 33.4379 24.8972L20.1169 19.9592C19.4266 19.7033 18.8312 19.2422 18.4108 18.6378C17.9903 18.0335 17.7649 17.315 17.7649 16.5787V10.895Z" fill="white"/>
</g>
</g>
<defs>
<clipPath id="clip0_23_1006">
<rect width="64" height="64" fill="white"/>
</clipPath>
</defs>
</svg>
